<svg width="512" height="512" viewBox="0 0 512 512" xmlns="http://www.w3.org/2000/svg">
  <defs>
    <linearGradient id="grad1" x1="0%" y1="0%" x2="100%" y2="100%">
      <stop offset="0%" style="stop-color:#1976d2;stop-opacity:1" />
      <stop offset="100%" style="stop-color:#1565c0;stop-opacity:1" />
    </linearGradient>
  </defs>
  
  <!-- 배경 원 -->
  <circle cx="256" cy="256" r="240" fill="url(#grad1)"/>
  
  <!-- 연결선들 -->
  <g stroke="white" stroke-width="8" fill="none" stroke-linecap="round">
    <!-- 메인 연결선 -->
    <line x1="120" y1="200" x2="200" y2="200"/>
    <line x1="200" y1="200" x2="200" y2="280"/>
    <line x1="200" y1="280" x2="280" y2="280"/>
    <line x1="280" y1="280" x2="280" y2="200"/>
    <line x1="280" y1="200" x2="360" y2="200"/>
    
    <!-- 보조 연결선들 -->
    <line x1="160" y1="160" x2="240" y2="160"/>
    <line x1="240" y1="160" x2="240" y2="240"/>
    <line x1="240" y1="240" x2="320" y2="240"/>
    
    <!-- 점선 가이드 -->
    <line x1="140" y1="320" x2="220" y2="320" stroke-dasharray="8,8"/>
    <line x1="220" y1="320" x2="220" y2="360"/>
    <line x1="220" y1="360" x2="300" y2="360" stroke-dasharray="8,8"/>
  </g>
  
  <!-- 노드들 -->
  <circle cx="120" cy="200" r="12" fill="white"/>
  <circle cx="200" cy="200" r="12" fill="white"/>
  <circle cx="200" cy="280" r="12" fill="white"/>
  <circle cx="280" cy="280" r="12" fill="white"/>
  <circle cx="280" cy="200" r="12" fill="white"/>
  <circle cx="360" cy="200" r="12" fill="white"/>
  
  <!-- 보조 노드들 -->
  <circle cx="160" cy="160" r="8" fill="white" opacity="0.8"/>
  <circle cx="240" cy="160" r="8" fill="white" opacity="0.8"/>
  <circle cx="240" cy="240" r="8" fill="white" opacity="0.8"/>
  <circle cx="320" cy="240" r="8" fill="white" opacity="0.8"/>
  
  <!-- 가이드 노드들 -->
  <circle cx="140" cy="320" r="6" fill="white" opacity="0.6"/>
  <circle cx="220" cy="320" r="6" fill="white" opacity="0.6"/>
  <circle cx="220" cy="360" r="6" fill="white" opacity="0.6"/>
  <circle cx="300" cy="360" r="6" fill="white" opacity="0.6"/>
  
  <!-- 중앙 가이드 아이콘 -->
  <g transform="translate(256, 256)">
    <circle cx="0" cy="0" r="40" fill="white" opacity="0.1"/>
    <path d="M-20,-20 L20,20 M-20,20 L20,-20" stroke="white" stroke-width="3" opacity="0.3"/>
  </g>
</svg> 